<svg id="Capa_11" class="cls-1" data-name="Capa 1" xmlns="http://www.w3.org/2000/svg" viewBox="0 0 181 178.5"><title>carro</title><path d="M140.32,123H87.55a24.81,24.81,0,0,1-23.49-16.82l-.09-.28L42.87,32.21a6,6,0,1,1,11.54-3.3l21,73.57A12.82,12.82,0,0,0,87.55,111h52.77a6,6,0,0,1,0,12Z"/><path d="M131.12,95.44H88.8a6,6,0,0,1,0-12h42.32a14.33,14.33,0,0,0,12.82-8l16-43a6,6,0,1,1,11.24,4.2L155.09,79.88c-.06.15-.12.3-.19.44A26.35,26.35,0,0,1,131.12,95.44Z"/><path d="M148,38.4H72.24a6,6,0,0,1,0-12H148a6,6,0,0,1,0,12Z"/><path d="M44.28,22H16a6,6,0,0,1,0-12H44.28a6,6,0,0,1,0,12Z"/><path d="M65.92,160a19,19,0,0,1-13.35-5.53,19.57,19.57,0,0,1-2.31-2.8l-.06-.09a19.29,19.29,0,0,1-2.78-6.73,18.54,18.54,0,0,1,0-7.42,19.7,19.7,0,0,1,1.08-3.55,19.44,19.44,0,0,1,1.7-3.21l.07-.1a19.57,19.57,0,0,1,2.31-2.8,18.48,18.48,0,0,1,2.89-2.37,19.14,19.14,0,0,1,3.22-1.7,17.86,17.86,0,0,1,3.52-1.08,19,19,0,0,1,7.4,0,18.32,18.32,0,0,1,3.56,1.09,18.83,18.83,0,0,1,6.12,4.07,18.69,18.69,0,0,1,4.07,6.12,18.37,18.37,0,0,1,1.06,3.46,17.51,17.51,0,0,1,.39,3.77,19,19,0,0,1-5.53,13.35,19.55,19.55,0,0,1-2.81,2.31l-.09.06a18,18,0,0,1-3.27,1.73,18.65,18.65,0,0,1-3.46,1.05A19,19,0,0,1,65.92,160Zm-5.73-15.07a7.59,7.59,0,0,0,.87,1.06,6.78,6.78,0,0,0,6.19,1.87,6.17,6.17,0,0,0,1.28-.39,6.61,6.61,0,0,0,1.21-.63,7.33,7.33,0,0,0,1.05-.86,7,7,0,0,0,2-4.86,6.13,6.13,0,0,0-.11-1.22l0-.1a6.29,6.29,0,0,0-.37-1.26l-.05-.1a6.88,6.88,0,0,0-.63-1.19,6.51,6.51,0,0,0-.82-1,6.81,6.81,0,0,0-1-.84,7.07,7.07,0,0,0-1.18-.62l-.12-.05a5.89,5.89,0,0,0-1.24-.37,6.91,6.91,0,0,0-2.68,0,6.06,6.06,0,0,0-1.2.37l-.12.05a6.31,6.31,0,0,0-2.18,1.45,8.09,8.09,0,0,0-.87,1.05,6.53,6.53,0,0,0-.59,1.14l-.05.11a6.53,6.53,0,0,0-.38,1.26,7.36,7.36,0,0,0-.13,1.31,7.29,7.29,0,0,0,.14,1.35,6.59,6.59,0,0,0,.39,1.26A6.46,6.46,0,0,0,60.19,144.93Z"/><path d="M136.84,160a16.59,16.59,0,0,1-3.31-.33,15.88,15.88,0,0,1-3.21-1A16.25,16.25,0,0,1,124.8,155a15.16,15.16,0,0,1-2.13-2.59,16.18,16.18,0,0,1-1.58-3,17.4,17.4,0,0,1-.94-3.08,16.63,16.63,0,0,1,0-6.69,16.19,16.19,0,0,1,1-3.19,17.83,17.83,0,0,1,1.55-2.93,16.91,16.91,0,0,1,7.74-6.34,16,16,0,0,1,3.17-1,17.08,17.08,0,0,1,15.3,4.64,16.08,16.08,0,0,1,2.17,2.62,18.2,18.2,0,0,1,1.55,2.91,17.29,17.29,0,0,1,1.31,6.54,16.71,16.71,0,0,1-.33,3.3,16,16,0,0,1-1,3.22,17.25,17.25,0,0,1-1.53,2.9,16.3,16.3,0,0,1-2.16,2.63,16.48,16.48,0,0,1-2.58,2.12,16.13,16.13,0,0,1-3,1.58,15.68,15.68,0,0,1-3.16,1A16.59,16.59,0,0,1,136.84,160Zm0-22.08a4.92,4.92,0,0,0-.94.1l-.15,0a4.14,4.14,0,0,0-.8.25,4.2,4.2,0,0,0-.83.42,4.6,4.6,0,0,0-.75.6l-.16.16a4.14,4.14,0,0,0-.55.68,6,6,0,0,0-.46.87,4.31,4.31,0,0,0-.26.84l0,.17a4.63,4.63,0,0,0-.09.92,4.45,4.45,0,0,0,.1.95,4.93,4.93,0,0,0,.29,1,5,5,0,0,0,.48.92,4,4,0,0,0,.53.65l.16.16a4.13,4.13,0,0,0,.68.55,4.19,4.19,0,0,0,.84.44,4.43,4.43,0,0,0,.88.29l.16,0a4.7,4.7,0,0,0,1.83,0l.17,0a4.15,4.15,0,0,0,.83-.27,4.64,4.64,0,0,0,.89-.46,4.13,4.13,0,0,0,.68-.55l.16-.16a4.73,4.73,0,0,0,.55-.68,5.31,5.31,0,0,0,.45-.85,4.06,4.06,0,0,0,.28-.89l0-.11a4.45,4.45,0,0,0,.1-.95,4.63,4.63,0,0,0-.09-.92l0-.17a4.42,4.42,0,0,0-.27-.88,6.58,6.58,0,0,0-.48-.87,4.37,4.37,0,0,0-.52-.64l-.1-.1A5.08,5.08,0,0,0,136.83,137.92Z"/></svg>