<svg id="Capa_1" class="cls-1" data-name="Capa 3" xmlns="http://www.w3.org/2000/svg" viewBox="0 0 181 181"><defs><style>.cls-1{fill:#fff;}</style></defs><title>iconoalojamiento</title><path d="M133.9,111.16H43.81V88.86a3.24,3.24,0,0,0-6.48,0v48.21a3.24,3.24,0,0,0,6.48,0V117.64H133.9a3.29,3.29,0,0,1,3.29,3.29v16.14a3.24,3.24,0,0,0,6.48,0V120.93A9.78,9.78,0,0,0,133.9,111.16Z"/><path d="M100.28,109.51h21.28a7.45,7.45,0,0,0,0-14.9H100.28A3.24,3.24,0,0,0,97,97.85v8.42A3.24,3.24,0,0,0,100.28,109.51Zm3.24-8.42h18a1,1,0,0,1,0,1.94h-18Z"/><path d="M45.83,106.27a3.24,3.24,0,0,0,3.24,3.24H60a3.24,3.24,0,0,0,3.24-3.24s0,0,0,0a9.08,9.08,0,0,0,6.94,3.26H93.09a3.23,3.23,0,0,0,3.23-3.24V94.47a3.23,3.23,0,0,0-3.23-3.24H70.16a9.12,9.12,0,0,0-7.89,4.62c0-.23.07-.46.07-.7A8.26,8.26,0,1,0,51.77,103h-2.7A3.25,3.25,0,0,0,45.83,106.27Zm24.33-8.56H89.85V103H70.16a2.66,2.66,0,0,1,0-5.32Zm-9,1.7c0,.32-.09.63-.09,1a8.9,8.9,0,0,0,.58,3.11A3.31,3.31,0,0,0,60,103H56.4A8.18,8.18,0,0,0,61.12,99.41Zm-7-6a1.78,1.78,0,1,1-1.78,1.77A1.77,1.77,0,0,1,54.09,93.38Z"/><path d="M117.38,60.93a11,11,0,0,0,7.78-18.79,3.24,3.24,0,0,0-4.58,4.58,4.51,4.51,0,0,1,0,6.4,4.61,4.61,0,0,1-6.4,0,3.24,3.24,0,1,0-4.58,4.58A10.93,10.93,0,0,0,117.38,60.93Z"/></svg>