<svg id="Capa_1" data-name="Capa 1" xmlns="http://www.w3.org/2000/svg" viewBox="0 0 181 180"><defs><style>.cls-1{fill:#fff;}</style></defs><title>iconnos-afronautica [Recuperado]</title><path class="cls-1" d="M65,145.9a2.71,2.71,0,0,1-1.89-.76c-9.5-9.15-16.67-5.71-19.31-3.8a2.72,2.72,0,0,1-4.29-2.55l.12-1c2.25-18.23,6.71-52,11.34-73.53,2.18-10.13,8.35-14.57,13.68-14.57H65c5.35-.23,11.79,4.2,14,14.56h0c4.64,21.5,9.1,55.3,11.34,73.53l.12,1a2.72,2.72,0,0,1-4.29,2.55c-2.64-1.91-9.8-5.35-19.31,3.8A2.67,2.67,0,0,1,65,145.9Zm-14.2-12.26c4,0,8.88,1.4,14.2,5.88C73,132.83,79.9,133,84.48,134.47c-2.36-18.76-6.49-49.22-10.76-69h0C72.15,58.16,68.16,55,65.15,55.16a1.31,1.31,0,0,1-.28,0c-3-.12-7,3-8.57,10.28-4.27,19.81-8.41,50.27-10.76,69A17.39,17.39,0,0,1,50.81,133.64ZM65,81.91c-5,0-8.84-5.5-8.84-12.52S60.05,56.86,65,56.86s8.83,5.51,8.83,12.53S70,81.91,65,81.91ZM65,62.3c-1.39,0-3.4,2.76-3.4,7.09s2,7.08,3.4,7.08,3.4-2.76,3.4-7.08S66.39,62.3,65,62.3Z"/><path class="cls-1" d="M109.11,140.57a2.72,2.72,0,0,1-2.15-1l-.6-.78c-2-2.6-8.21-10.52-15.58-20.27a2.72,2.72,0,1,1,4.34-3.27c5.36,7.09,10.09,13.21,13,17,2.2-4.27,7-9.31,17.34-10.2.89-10.36,5.93-15.14,10.2-17.34-14.13-11-37.26-28.59-54.23-39.77a2.72,2.72,0,1,1,3-4.55c18.5,12.2,44.16,31.9,57.81,42.55l.74.57a2.73,2.73,0,0,1-1.24,4.84c-3.21.52-10.71,3.15-11,16.34a2.73,2.73,0,0,1-2.67,2.67c-13.19.25-15.83,7.75-16.35,11a2.7,2.7,0,0,1-2,2.2A2.57,2.57,0,0,1,109.11,140.57Z"/><path class="cls-1" d="M82.58,52.25c1.61,1.13,3.24,2.27,4.88,3.45l4.34-8.37A13.29,13.29,0,0,0,82.58,52.25Z"/><path class="cls-1" d="M89.8,57.38l2.84,2,6.29-12.16H95Z"/><path class="cls-1" d="M137.59,45a21,21,0,0,0-15.34-6.58H92.81A21.84,21.84,0,0,0,75.2,47.18Q77.85,49,80.64,50.9A15.24,15.24,0,0,1,92.81,45h29.44a14.62,14.62,0,0,1,14.6,15.36A14.64,14.64,0,0,1,117.76,73.5a6,6,0,0,1-3.94-5.71V66.64a6.54,6.54,0,0,0-7.2-6.51,6.67,6.67,0,0,0-5.74,5.35c2.09,1.55,4.16,3.1,6.2,4.63a13.67,13.67,0,0,0,.2-1.45,13.29,13.29,0,0,0,.25,1.79c4.79,3.6,9.36,7.09,13.49,10.27.41,0,.81,0,1.22,0a20.24,20.24,0,0,0,2.05-.1,21.27,21.27,0,0,0,19.12-20A21,21,0,0,0,137.59,45Z"/></svg>