<svg id="Capa_1" data-name="Capa 1" xmlns="http://www.w3.org/2000/svg" viewBox="0 0 181 180"><defs><style>.cls-1{fill:#fff;}</style></defs><title>iconnos-afronautica [Recuperado]</title><path class="cls-1" d="M88.07,52.06a3.29,3.29,0,0,1-2.87-1.68l-4.62-8.26a3.28,3.28,0,0,1,5.72-3.2l4.62,8.26a3.28,3.28,0,0,1-2.85,4.88Z"/><path class="cls-1" d="M95.06,52.06a3.28,3.28,0,0,1-2.85-4.88l4.62-8.26a3.28,3.28,0,0,1,5.72,3.21l-4.63,8.25A3.28,3.28,0,0,1,95.06,52.06Z"/><path class="cls-1" d="M100.47,145.56a3.26,3.26,0,0,1-3.11-2.27l-5.8-18-5.79,18a3.27,3.27,0,1,1-6.23-2l8.73-27.15a3.28,3.28,0,0,1,3.12-2.28h.35a3.28,3.28,0,0,1,3.12,2.28l8.73,27.15a3.27,3.27,0,0,1-2.11,4.12A3.23,3.23,0,0,1,100.47,145.56Z"/><path class="cls-1" d="M91.56,110.15c-8.67,0-15.21-12.24-15.21-28.46s6.54-28.46,15.21-28.46,15.22,12.24,15.22,28.46S100.24,110.15,91.56,110.15Zm0-50.37c-3.53,0-8.66,8.54-8.66,21.91S88,103.6,91.56,103.6s8.66-8.54,8.66-21.91S95.1,59.78,91.56,59.78Z"/><path class="cls-1" d="M91.56,85a3.28,3.28,0,0,1-3.27-3.28V69a3.28,3.28,0,1,1,6.55,0V81.69A3.28,3.28,0,0,1,91.56,85Z"/><path class="cls-1" d="M141.47,94.57a3.26,3.26,0,0,1-3.27-3.27c0-15.77-15-28.61-33.45-28.61a3.28,3.28,0,1,1,0-6.55c22.06,0,40,15.77,40,35.16A3.27,3.27,0,0,1,141.47,94.57Z"/><path class="cls-1" d="M116.32,123.6a3.28,3.28,0,0,1-2.52-5.37A28.25,28.25,0,0,0,109.69,78a3.28,3.28,0,1,1,4.11-5.11,34.8,34.8,0,0,1,5,49.5A3.28,3.28,0,0,1,116.32,123.6Z"/><path class="cls-1" d="M40,94.57a3.27,3.27,0,0,1-3.28-3.27c0-19.39,17.95-35.16,40-35.16a3.28,3.28,0,1,1,0,6.55c-18.44,0-33.45,12.84-33.45,28.61A3.26,3.26,0,0,1,40,94.57Z"/><path class="cls-1" d="M65.18,123.6a3.3,3.3,0,0,1-2.53-1.19,34.79,34.79,0,0,1,5.05-49.5A3.28,3.28,0,0,1,71.8,78a28.25,28.25,0,0,0-4.11,40.21,3.28,3.28,0,0,1-2.51,5.37Z"/></svg>