<svg id="Capa_1" data-name="Capa 1" xmlns="http://www.w3.org/2000/svg" viewBox="0 0 181 179.5"><defs><style>.cls-1{fill:#fff;}</style></defs><title>iconnos-afronautica [Recuperado]</title><path class="cls-1" d="M101.05,120.13a21.34,21.34,0,0,1-6.54-1,12.13,12.13,0,0,1-8.26-11.66v-1.21a.87.87,0,0,0-1-.85,1,1,0,0,0-.76,1v1a12.14,12.14,0,0,1-8.34,11.69A21.29,21.29,0,0,1,48.48,97.83,21.53,21.53,0,0,1,70.26,77.57h30.79A21.28,21.28,0,0,1,122.3,99.92,21.35,21.35,0,0,1,103.1,120C102.41,120.09,101.73,120.13,101.05,120.13ZM85.39,100.27a6,6,0,0,1,6,6v1.21a7.13,7.13,0,0,0,4.74,6.8A16.16,16.16,0,0,0,117.2,99.67a16.16,16.16,0,0,0-16.15-17H70.26A16.41,16.41,0,0,0,53.59,98.07a16.15,16.15,0,0,0,16.15,17,16.23,16.23,0,0,0,4.9-.76,7.16,7.16,0,0,0,4.8-6.83v-1a6.12,6.12,0,0,1,5.35-6.12Q85.09,100.27,85.39,100.27Z"/><path class="cls-1" d="M106.67,134.08H85.39a2.55,2.55,0,0,1-2.55-2.55V120A2.56,2.56,0,1,1,88,120v9h18.72a20.79,20.79,0,0,0,20.76-20.77V66.85a2.56,2.56,0,0,1,5.11,0v41.36A25.9,25.9,0,0,1,106.67,134.08Z"/><path class="cls-1" d="M114.41,76.89A7.57,7.57,0,1,1,122,69.32,7.58,7.58,0,0,1,114.41,76.89Zm0-10a2.47,2.47,0,1,0,2.47,2.47A2.47,2.47,0,0,0,114.41,66.85Z"/><path class="cls-1" d="M101.82,66.85a10.47,10.47,0,1,1,10.47-10.46A10.48,10.48,0,0,1,101.82,66.85Zm0-15.83a5.37,5.37,0,1,0,5.36,5.37A5.37,5.37,0,0,0,101.82,51Z"/><path class="cls-1" d="M119.52,62.6a6.73,6.73,0,1,1,6.72-6.72A6.73,6.73,0,0,1,119.52,62.6Zm0-8.34a1.62,1.62,0,1,0,1.62,1.62A1.62,1.62,0,0,0,119.52,54.26Z"/><path class="cls-1" d="M57,98.52a13.49,13.49,0,0,0,2,7.79l10.1-20.45A13.35,13.35,0,0,0,57,98.52Z"/><path class="cls-1" d="M61,108.83A12.9,12.9,0,0,0,63.91,111L76.36,85.8h-4Z"/></svg>