<svg id="Capa_1" data-name="Capa 1" xmlns="http://www.w3.org/2000/svg" viewBox="0 0 181 181"><defs><style>.cls-1{fill:#fff;}</style></defs><title>iconnos-afronautica [Recuperado]</title><path class="cls-1" d="M76.53,135.94a3.2,3.2,0,0,1-1.86-5.79l32.91-23.55a3.2,3.2,0,0,1,3.71,0l31.11,22.26a3.19,3.19,0,0,1-3.72,5.19l-29.25-20.93-31,22.22A3.19,3.19,0,0,1,76.53,135.94Z"/><path class="cls-1" d="M140.56,145.6H40.44a3.19,3.19,0,1,1,0-6.38H140.56a3.19,3.19,0,1,1,0,6.38Z"/><path class="cls-1" d="M101.71,59.94a3.2,3.2,0,0,1-2.47-1.16,32.6,32.6,0,0,0-45.85-4.46,3.19,3.19,0,1,1-4.06-4.93,39,39,0,0,1,54.84,5.33,3.2,3.2,0,0,1-2.46,5.22Z"/><path class="cls-1" d="M109.58,59.6a3.3,3.3,0,0,1-1-.17,3.19,3.19,0,0,1-2-4,10.07,10.07,0,0,0-6.34-12.78,3.19,3.19,0,0,1,2-6A16.48,16.48,0,0,1,112.6,57.42,3.19,3.19,0,0,1,109.58,59.6Z"/><path class="cls-1" d="M135.82,68.68a3.19,3.19,0,0,1-2.77-1.6A10.64,10.64,0,0,0,125.78,62a14.47,14.47,0,0,0-10.1,1.75,3.19,3.19,0,1,1-3.17-5.54,20.79,20.79,0,0,1,14.57-2.46,16.94,16.94,0,0,1,11.51,8.15,3.18,3.18,0,0,1-2.77,4.77Z"/><path class="cls-1" d="M100.05,91.93a3.19,3.19,0,0,1-1.34-6.09,8.33,8.33,0,0,0,4.06-11.06,3.19,3.19,0,0,1,5.79-2.68,14.73,14.73,0,0,1-7.17,19.53A3.22,3.22,0,0,1,100.05,91.93Z"/><path class="cls-1" d="M62.61,80.8a3.34,3.34,0,0,1-1-.16,3.19,3.19,0,0,1-2-4,28.59,28.59,0,0,1,36.21-18,3.19,3.19,0,1,1-2,6.05,22.21,22.21,0,0,0-28.13,14A3.18,3.18,0,0,1,62.61,80.8Z"/><path class="cls-1" d="M136.21,100.83H136A3.19,3.19,0,0,1,133,97.41a22.41,22.41,0,0,0-20.72-23.93,3.19,3.19,0,1,1,.46-6.36,28.79,28.79,0,0,1,26.62,30.75A3.19,3.19,0,0,1,136.21,100.83Z"/><path class="cls-1" d="M54.53,135.94a3.19,3.19,0,0,1-3.19-3.2,74.42,74.42,0,0,1,54.07-71.42,3.19,3.19,0,1,1,1.73,6.14,68,68,0,0,0-49.42,65.28A3.19,3.19,0,0,1,54.53,135.94Z"/><path class="cls-1" d="M78.46,121.59a11.08,11.08,0,1,1,11.07-11.07A11.09,11.09,0,0,1,78.46,121.59Zm0-15.76a4.69,4.69,0,1,0,4.68,4.69A4.69,4.69,0,0,0,78.46,105.83Z"/></svg>