<svg id="Capa_1" data-name="Capa 1" xmlns="http://www.w3.org/2000/svg" viewBox="0 0 181 178.5"><defs><style>.cls-1{fill:#fff;}</style></defs><title>iconnos-afronautica [Recuperado]</title><path class="cls-1" d="M78.84,99.63H70.33a2.66,2.66,0,0,0,0,5.32h8.51a3.38,3.38,0,0,1,2,.71h-12a2.66,2.66,0,1,0,0,5.32h12a3.32,3.32,0,0,1-2,.71H70.33a2.66,2.66,0,1,0,0,5.32h8.51a8.67,8.67,0,0,0,8.22-6l27,.09h0a2.66,2.66,0,0,0,0-5.32l-27-.09A8.67,8.67,0,0,0,78.84,99.63Z"/><path class="cls-1" d="M136,89.18a3.14,3.14,0,0,0-3.23,3A43.23,43.23,0,0,1,46.3,90.79c0-.58,0-1.16,0-1.73a3.13,3.13,0,0,0-6.26-.25c0,.66,0,1.31,0,2a49.49,49.49,0,0,0,99,1.63A3.15,3.15,0,0,0,136,89.18Z"/><path class="cls-1" d="M78.34,49a43.75,43.75,0,0,1,11.18-1.46,42.86,42.86,0,0,1,26.45,9,3.13,3.13,0,1,0,3.83-5A49,49,0,0,0,89.52,41.3,49.61,49.61,0,0,0,76.73,43,3.13,3.13,0,0,0,78.34,49Z"/><path class="cls-1" d="M67.6,93.91c0-.11,0-.23-.07-.35a3,3,0,0,0-3.68-2.28A3.21,3.21,0,0,0,61.44,95h0a4.22,4.22,0,0,0,.18.79,3.13,3.13,0,0,0,3,2.19,3.08,3.08,0,0,0,.94-.15,3.12,3.12,0,0,0,2-3.93Z"/><path class="cls-1" d="M88.67,112.57a3.22,3.22,0,0,0-3.23,3,3.13,3.13,0,0,0,3,3.23h.88c.43,0,.85,0,1.28,0a3.13,3.13,0,1,0-.3-6.25C89.77,112.58,89.22,112.58,88.67,112.57Z"/><path class="cls-1" d="M110.22,104.63a3.11,3.11,0,0,0,2.78-1.69,26.06,26.06,0,0,0,3-11.28,3.13,3.13,0,0,0-3-3.23h-.11a3.13,3.13,0,0,0-3.12,3,20,20,0,0,1-2.25,8.6,3.13,3.13,0,0,0,2.78,4.57Z"/><path class="cls-1" d="M138.44,80.63c-5.64,0-18-5.7-18-9.95s12.34-9.9,18-9.9h0a3.14,3.14,0,0,0,0-6.27h0c-5.22,0-16.06,3.55-21.3,9.37-2.7-2.81-7.1-5.34-13.11-7.48a93.14,93.14,0,0,0-29.36-5c-9.57.05-18.62,1.72-25.49,5C41.62,59.94,37.42,65,37.4,70.59,37.37,81.4,53.7,89.93,74.6,90h.23c15.14,0,34.92-4.59,42.42-12.46,5.25,5.78,16,9.34,21.17,9.35h0a3.13,3.13,0,1,0,0-6.26ZM74.62,83.74c-18.27-.06-31-7-31-13.13,0-3,3-6.13,8.24-8.58,6-2.84,14.24-4.37,22.8-4.36A86.63,86.63,0,0,1,102,62.3c8.36,3,12.09,6.42,12.08,8.5C114,76.26,94.18,83.89,74.62,83.74Z"/><path class="cls-1" d="M62.76,61.45a4.63,4.63,0,1,0,4.63,4.63A4.63,4.63,0,0,0,62.76,61.45Z"/><path class="cls-1" d="M88.06,66.08a5.67,5.67,0,0,0-5.67-5.67,1,1,0,0,0,0,2.09,3.58,3.58,0,0,1,0,7.16,1,1,0,0,0,0,2.09,3.58,3.58,0,0,1,0,7.16,1,1,0,0,0,0,2.09,5.66,5.66,0,0,0,3.26-10.3A5.65,5.65,0,0,0,88.06,66.08Z"/><path class="cls-1" d="M91.12,64.26a1,1,0,1,0,0,2.09,3.59,3.59,0,0,1,0,7.17,1,1,0,1,0,0,2.08,5.67,5.67,0,0,0,0-11.34Z"/></svg>