<svg id="Capa_1" data-name="Capa 1" xmlns="http://www.w3.org/2000/svg" viewBox="0 0 181 179.5"><defs><style>.cls-1{fill:#fff;}</style></defs><title>icono-superior</title><path class="cls-1" d="M125.16,67.2c-11.63,0-25.16-3.65-39.77-14.43-17.6-13-34.65-17-50.66-11.94A46.75,46.75,0,0,0,16.11,52a6,6,0,0,1-8.9-8,57.86,57.86,0,0,1,23.9-14.53c13.67-4.33,35.42-5.45,61.41,13.72,41,30.29,70.88-5.92,72.13-7.47A6,6,0,0,1,174,43.12,72.66,72.66,0,0,1,149,62,58.14,58.14,0,0,1,125.16,67.2Z"/><path class="cls-1" d="M125.16,110c-11.63,0-25.16-3.65-39.77-14.43-17.6-13-34.65-17-50.66-11.94A46.75,46.75,0,0,0,16.11,94.74a6,6,0,0,1-8.9-8,57.86,57.86,0,0,1,23.9-14.53c13.67-4.33,35.42-5.46,61.41,13.72,41,30.29,70.88-5.92,72.13-7.47A6,6,0,0,1,174,85.9a72.8,72.8,0,0,1-25,18.85A58.14,58.14,0,0,1,125.16,110Z"/><path class="cls-1" d="M125.16,152.76c-11.63,0-25.16-3.65-39.77-14.43-17.6-13-34.65-17-50.66-11.94a46.75,46.75,0,0,0-18.62,11.13,6,6,0,1,1-8.9-8,57.94,57.94,0,0,1,23.9-14.54c13.67-4.32,35.42-5.45,61.41,13.73,17.36,12.81,34.71,15.47,51.56,7.91a60.45,60.45,0,0,0,20.56-15.37,6,6,0,0,1,9.4,7.47,72.8,72.8,0,0,1-25,18.85A58.14,58.14,0,0,1,125.16,152.76Z"/></svg>