<svg id="Capa_1" data-name="Capa 1" xmlns="http://www.w3.org/2000/svg" viewBox="0 0 181 181"><defs><style>.cls-1{fill:#fff;}</style></defs><title>icon66</title><path class="cls-1" d="M133.9,109.66H43.81V87.36a3.24,3.24,0,0,0-6.48,0v48.21a3.24,3.24,0,0,0,6.48,0V116.14H133.9a3.29,3.29,0,0,1,3.29,3.29v16.14a3.24,3.24,0,0,0,6.48,0V119.43A9.78,9.78,0,0,0,133.9,109.66Z"/><path class="cls-1" d="M100.28,108h21.28a7.45,7.45,0,0,0,0-14.9H100.28A3.24,3.24,0,0,0,97,96.35v8.42A3.24,3.24,0,0,0,100.28,108Zm3.24-8.42h18a1,1,0,0,1,0,1.94h-18Z"/><path class="cls-1" d="M45.83,104.77A3.24,3.24,0,0,0,49.07,108H60a3.24,3.24,0,0,0,3.24-3.24s0,0,0,0A9.08,9.08,0,0,0,70.16,108H93.09a3.23,3.23,0,0,0,3.23-3.24V93a3.23,3.23,0,0,0-3.23-3.24H70.16a9.12,9.12,0,0,0-7.89,4.62c0-.23.07-.46.07-.7a8.26,8.26,0,1,0-10.57,7.88h-2.7A3.25,3.25,0,0,0,45.83,104.77Zm24.33-8.56H89.85v5.32H70.16a2.66,2.66,0,0,1,0-5.32Zm-9,1.7c0,.32-.09.63-.09,1a8.9,8.9,0,0,0,.58,3.11,3.31,3.31,0,0,0-1.62-.45H56.4A8.18,8.18,0,0,0,61.12,97.91Zm-7-6a1.78,1.78,0,1,1-1.78,1.77A1.77,1.77,0,0,1,54.09,91.88Z"/></svg>