<svg id="Capa_1" data-name="Capa 1" xmlns="http://www.w3.org/2000/svg" viewBox="0 0 181 178.5"><defs><style>.cls-1{fill:#fff;}</style></defs><title>icono-superior</title><path class="cls-1" d="M134.38,145H46.63a6,6,0,0,1-5.92-5l-16-95H9.5a6,6,0,0,1,0-12H29.75a6,6,0,0,1,5.92,5l16,95h77.6l16-95a6,6,0,0,1,5.92-5H171.5a6,6,0,0,1,0,12H156.32l-16,95A6,6,0,0,1,134.38,145Z"/><path class="cls-1" d="M122.56,45H58.44a6,6,0,0,1,0-12h64.12a6,6,0,0,1,0,12Z"/><path class="cls-1" d="M90.5,118.16a6,6,0,0,1-6-6V60.34a6,6,0,0,1,12,0v51.82A6,6,0,0,1,90.5,118.16Z"/><path class="cls-1" d="M115.81,118.16a6,6,0,0,1-6-6V60.34a6,6,0,0,1,12,0v51.82A6,6,0,0,1,115.81,118.16Z"/><path class="cls-1" d="M65.19,118.16a6,6,0,0,1-6-6V60.34a6,6,0,0,1,12,0v51.82A6,6,0,0,1,65.19,118.16Z"/></svg>