<svg id="Capa_8" class="cls-1" data-name="Capa 1" xmlns="http://www.w3.org/2000/svg" viewBox="0 0 994.67 264"><title>logo-afro</title><path d="M52.52,148.73c5.13,0,8.61-.14,10.45-.35v.29a98.74,98.74,0,0,0,2.3,10.45q1.92,7.38,2.54,9.06l23.13,70.38A9.32,9.32,0,0,0,92.81,242a4.57,4.57,0,0,0,3.51,1.19,8.71,8.71,0,0,1,3.93.86,3.91,3.91,0,0,1,2.23,2.65c-.15,3.12-.21,5.64-.2,7.54s-.33,3.05-1,3.59Q92,257,85.76,257.06q-12.54.07-17.15.9a51.19,51.19,0,0,1-1.1-11.71c0-1.17.71-1.93,2.17-2.28s2.9-.66,4.35-.91,2.18-.86,2.18-1.84a9.7,9.7,0,0,0-.57-2.71l-6-19.67L37.42,219l-5.48,19.74a12.66,12.66,0,0,0-.54,2.72c0,1,.75,1.58,2.22,1.82s3,.52,4.43.85,2.22,1.09,2.23,2.26q-.69,9-1.6,11.31l-16.16.09-14.75.08c-.7-.51-1.06-1.68-1.07-3.48s.1-4.31.33-7.36a3.84,3.84,0,0,1,2.14-2.58A8.53,8.53,0,0,1,13,243.6a4.54,4.54,0,0,0,3.5-1.23A9.45,9.45,0,0,0,18.36,239L40.7,167.1a9.31,9.31,0,0,0,.48-2.41,1.88,1.88,0,0,0-1.3-1.93,6.35,6.35,0,0,0-2.8-.31,5.2,5.2,0,0,1-2.8-.46,2.24,2.24,0,0,1-1.3-2.21,5.2,5.2,0,0,1,.12-.73q.81-8.18,2.09-10.22Zm.9,17.23q-6.36,18.48-12.86,41.92l25.81-.14q-3-10.43-6.26-20.85t-5-15.68Z"/><path d="M112.83,147.51q7.68.5,34.29.55l26.31.06q1.35,1.08,5.19,14.08t3.84,15.52a3.37,3.37,0,0,1-.46,1.4,9.3,9.3,0,0,1-1.42,1.95,7.34,7.34,0,0,1-2.77,1.75,11.18,11.18,0,0,1-4.15.72q-1.29,0-2.91-4.38T167.49,169a69.79,69.79,0,0,0-2.32-7.26l-13.56,0-15,0a2.75,2.75,0,0,0-1.41.29,1.12,1.12,0,0,0-.58.62,2.84,2.84,0,0,0-.1.84l-.06,29.93a54,54,0,0,1,8.82-2.62,45.13,45.13,0,0,1,9.62-1.15q10,0,9.94,9.39a10.15,10.15,0,0,1-2.38,6.84,7.18,7.18,0,0,1-5.57,2.73q-4.35-6.75-11.42-6.76a34.51,34.51,0,0,0-9,1.23l-.08,35.14a12.67,12.67,0,0,0,.09,1.72,5.78,5.78,0,0,0,.43,1.43,2.27,2.27,0,0,0,1.19,1.21,5.22,5.22,0,0,0,2.21.41,12.09,12.09,0,0,1,4.86.89,2.83,2.83,0,0,1,2,2.64,39,39,0,0,1-.66,7.28c-.44,2.32-1.1,3.87-2,4.64-5.86-.55-10.91-.82-15.18-.83q-6,0-14.69.77c-1.1-.78-1.92-2.35-2.45-4.69a33.35,33.35,0,0,1-.78-7.25,2.83,2.83,0,0,1,2-2.63,12.26,12.26,0,0,1,4.85-.87c1.6,0,2.65-.4,3.14-1.2a6.55,6.55,0,0,0,.74-3.4l.15-70.67a6.5,6.5,0,0,0-.73-3.41c-.49-.8-1.53-1.21-3.13-1.21-4.59,0-6.88-1.29-6.87-3.82a31,31,0,0,1,.81-7.06C110.9,149.77,111.72,148.24,112.83,147.51Z"/><path d="M190.44,148q8.12.35,22.62.31l13.06,0,10.36,0a35.63,35.63,0,0,1,14,2.6,27.32,27.32,0,0,1,10.09,7,31.28,31.28,0,0,1,5.9,9.76,31.79,31.79,0,0,1,2.05,11.24,29.45,29.45,0,0,1-.94,7.4,27,27,0,0,1-3,7.14,29.26,29.26,0,0,1-4.81,6.15A23,23,0,0,1,253,204a21.24,21.24,0,0,1-8.63,1.79,18,18,0,0,1,8,6.4,35.31,35.31,0,0,1,5,9.75q1.71,5.18,3.16,10.12a33.09,33.09,0,0,0,3.49,8.21q2,3.27,5,3.25c5.82,0,8.72.62,8.73,1.89v2.7a21.07,21.07,0,0,1-.29,4,9.62,9.62,0,0,1-1.41,3.26,6.53,6.53,0,0,1-3.62,2.57,21,21,0,0,1-6.51.85,14.62,14.62,0,0,1-6.92-1.55,14.31,14.31,0,0,1-4.93-4.23,31.22,31.22,0,0,1-3.42-6.18,74.75,74.75,0,0,1-2.69-7.46c-.81-2.63-1.61-5.29-2.42-8a68.52,68.52,0,0,0-2.9-7.86,41.13,41.13,0,0,0-3.89-6.94,20.84,20.84,0,0,0-13.45-8.42l-13,0,.06,29.93a14.32,14.32,0,0,0,.1,1.72,6.33,6.33,0,0,0,.43,1.42,2.31,2.31,0,0,0,1.21,1.21,5.21,5.21,0,0,0,2.21.39,12.34,12.34,0,0,1,4.86.87,2.83,2.83,0,0,1,2,2.63q0,9.73-2,11.93-9.23-.78-15.8-.77-5.65,0-14.68.84c-1.11-.77-1.94-2.34-2.47-4.67a32.82,32.82,0,0,1-.82-7.25,2.84,2.84,0,0,1,2-2.64,12.44,12.44,0,0,1,4.86-.89c1.59,0,2.64-.4,3.13-1.2a6.57,6.57,0,0,0,.73-3.39L198,168a6.5,6.5,0,0,0-.75-3.39c-.49-.8-1.54-1.2-3.13-1.2-4.59,0-6.89-1.25-6.9-3.78a31.55,31.55,0,0,1,.79-7C188.52,150.27,189.34,148.74,190.44,148Zm21.81,47.87,25.57-.06q7.68,0,12.09-5a17.08,17.08,0,0,0,4.4-11.74,18.55,18.55,0,0,0-4.67-12.62q-4.65-5.31-13.13-5.29l-24.34,0Z"/><path d="M341.93,255.73a45.46,45.46,0,0,1-33.43.63A39.78,39.78,0,0,1,295.22,248a53.3,53.3,0,0,1-9.55-12.52,61.4,61.4,0,0,1-6-15.29,75.16,75.16,0,0,1-2.15-16.68A74.32,74.32,0,0,1,279,186.8a60.25,60.25,0,0,1,5.4-15.32,52.59,52.59,0,0,1,9-12.69,39.43,39.43,0,0,1,13-8.73,46.69,46.69,0,0,1,33.48-.63,39.43,39.43,0,0,1,13.32,8.24A52.47,52.47,0,0,1,362.79,170a60.12,60.12,0,0,1,6,15.11,74.75,74.75,0,0,1,2.16,16.61,75.87,75.87,0,0,1-1.54,16.75A60.68,60.68,0,0,1,364,234a53.72,53.72,0,0,1-9.07,12.87A39.77,39.77,0,0,1,341.93,255.73Zm-28.07-11.91a26.46,26.46,0,0,0,22.24-.42,27.19,27.19,0,0,0,8.61-6.75,40.05,40.05,0,0,0,6-9.77,51.88,51.88,0,0,0,3.56-11.78,65.64,65.64,0,0,0,1-12.79A62.39,62.39,0,0,0,353,186.48a51.19,51.19,0,0,0-6-13.65,29.09,29.09,0,0,0-10-9.66,26.48,26.48,0,0,0-27,.51,29.12,29.12,0,0,0-9.62,10,51.23,51.23,0,0,0-5.48,13.86,62.35,62.35,0,0,0-1.71,15.92,65.67,65.67,0,0,0,1.47,12.74,52,52,0,0,0,4,11.63A40.14,40.14,0,0,0,305,237.4,27,27,0,0,0,313.86,243.82Z"/><path d="M378,148.05h21.26q1.05,0,7.81,10.34t16.4,26.17q9.63,15.85,14.91,24.71l9.54,16,0-57a6.37,6.37,0,0,0-.74-3.38c-.49-.8-1.53-1.2-3.13-1.2a11.91,11.91,0,0,1-4.86-.9,2.92,2.92,0,0,1-2-2.71,40.43,40.43,0,0,1,.64-7.34c.43-2.34,1.1-3.9,2-4.71H469q1.35,1.2,2,4.7a40.41,40.41,0,0,1,.65,7.34,2.89,2.89,0,0,1-2,2.71,11.74,11.74,0,0,1-4.86.91,5.2,5.2,0,0,0-2.21.4,2.25,2.25,0,0,0-1.2,1.19,5.85,5.85,0,0,0-.43,1.42,12.51,12.51,0,0,0-.09,1.71l0,58.76q0,5,.41,16t.4,13q-3.13,3.72-6.64,3.72a3.22,3.22,0,0,1-1.38-.29,3.27,3.27,0,0,1-1.2-1c-.37-.46-.66-.84-.89-1.16a15.94,15.94,0,0,1-1-1.6c-.41-.74-.72-1.29-.93-1.63q-5.6-9.3-28.42-46.93t-22.81-37.48l0,68.13a12.77,12.77,0,0,0,.09,1.72,5.72,5.72,0,0,0,.43,1.42,2.32,2.32,0,0,0,1.2,1.21,5.23,5.23,0,0,0,2.21.4,12.27,12.27,0,0,1,4.86.87,2.82,2.82,0,0,1,2,2.61,39.49,39.49,0,0,1-.64,7.19q-.64,3.48-2,4.64-8.36-.79-14.57-.79-5.83,0-14.07.8-1.67-1.15-2.46-4.64a32.12,32.12,0,0,1-.8-7.18,2.82,2.82,0,0,1,2-2.62,12.22,12.22,0,0,1,4.85-.87c1.6,0,2.64-.4,3.13-1.2a6.39,6.39,0,0,0,.74-3.36l0-69.89a6.39,6.39,0,0,0-.74-3.36c-.49-.8-1.54-1.19-3.14-1.19q-6.88,0-6.88-3.86a31.87,31.87,0,0,1,.79-7.16Q376.29,149.17,378,148.05Z"/><path d="M518.85,148.15q7.68,0,10.45-.33v.3a94,94,0,0,0,2.27,10.45q1.89,7.38,2.51,9.06L557,238.08a9.61,9.61,0,0,0,1.86,3.4,4.52,4.52,0,0,0,3.5,1.19,8.73,8.73,0,0,1,3.94.88,3.93,3.93,0,0,1,2.22,2.65c-.16,3.13-.23,5.64-.23,7.54s-.34,3.05-1,3.59q-9.22-.78-15.49-.76-12.54,0-17.15.85a51.53,51.53,0,0,1-1.07-11.71c0-1.18.72-1.94,2.17-2.28s2.91-.64,4.36-.89,2.18-.86,2.18-1.84a9.22,9.22,0,0,0-.56-2.71l-5.89-19.68-32.27.08L498,238.12a12.2,12.2,0,0,0-.55,2.71c0,1,.75,1.59,2.22,1.83s2.95.53,4.43.86,2.21,1.1,2.22,2.27q-.72,9-1.63,11.31l-16.16,0-14.76,0c-.7-.52-1-1.68-1-3.49s.11-4.3.35-7.35a3.83,3.83,0,0,1,2.14-2.57,8.6,8.6,0,0,1,3.87-.87,4.54,4.54,0,0,0,3.5-1.21,9.36,9.36,0,0,0,1.84-3.4L507,166.48a9,9,0,0,0,.49-2.41,1.89,1.89,0,0,0-1.3-1.93,6.31,6.31,0,0,0-2.8-.32,5.22,5.22,0,0,1-2.8-.46,2.24,2.24,0,0,1-1.29-2.22,5.2,5.2,0,0,1,.12-.73q.84-8.17,2.12-10.22Zm.84,17.23q-6.41,18.45-13,41.88l25.82-.07q-3-10.42-6.2-20.87t-5-15.69Z"/><path d="M886.59,184.22h-5.1c-.37,0-.84-.45-1.42-1.36s-1.24-2.06-2-3.47-1.62-3-2.61-4.72a42.77,42.77,0,0,0-3.47-5.16,43.49,43.49,0,0,0-4.25-4.68,18.59,18.59,0,0,0-5.29-3.47,15.35,15.35,0,0,0-6.3-1.35,23.06,23.06,0,0,0-10.57,2.46,25.07,25.07,0,0,0-8.23,6.59,41.69,41.69,0,0,0-5.8,9.66A52.67,52.67,0,0,0,828,190.39,68.93,68.93,0,0,0,826.86,203a51.7,51.7,0,0,0,1.38,12,43.77,43.77,0,0,0,4.25,11,38.53,38.53,0,0,0,6.89,9.1,29.69,29.69,0,0,0,9.74,6.22,32.87,32.87,0,0,0,12.42,2.3q14.33,0,26.42-10.77a13.94,13.94,0,0,1,2.41,7.46q0,5.28-4.76,9.7a31.14,31.14,0,0,1-11.71,6.7,45,45,0,0,1-14,2.28,47.19,47.19,0,0,1-17.43-3.14A40.7,40.7,0,0,1,829,247.32a51.52,51.52,0,0,1-9.44-12.48,57.58,57.58,0,0,1-5.72-15.1A74,74,0,0,1,812,203.28a75.42,75.42,0,0,1,3.13-21.89,62,62,0,0,1,8.65-18.15,41.74,41.74,0,0,1,13.7-12.33,35.54,35.54,0,0,1,17.64-4.58,26.67,26.67,0,0,1,12.21,3.17,25.23,25.23,0,0,1,10,9.4q0-11,2.39-11h6.88c2,0,2.95,2.54,3,7.61v19.54a39,39,0,0,1-.33,6.11,4.61,4.61,0,0,1-.86,2.41A3.15,3.15,0,0,1,886.59,184.22Z"/><path d="M941,148.38c5.12,0,8.61-.08,10.45-.27v.29a95.83,95.83,0,0,0,2.22,10.47q1.86,7.4,2.47,9.07l22.6,70.56a9.35,9.35,0,0,0,1.83,3.4,4.58,4.58,0,0,0,3.51,1.22A8.73,8.73,0,0,1,988,244a4,4,0,0,1,2.2,2.67q-.26,4.68-.26,7.53c0,1.86-.35,3-1.05,3.59q-9.21-.82-15.49-.84-12.54,0-17.15.77a51.45,51.45,0,0,1-1-11.72c0-1.17.73-1.93,2.19-2.27s2.91-.63,4.37-.87S964,242,964,241.05a9.09,9.09,0,0,0-.55-2.71l-5.8-19.72-32.26-.06-5.64,19.69a12.31,12.31,0,0,0-.55,2.71c0,1,.73,1.59,2.2,1.84s3,.54,4.43.89S928,244.79,928,246q-.76,9-1.69,11.31l-16.16,0-14.75,0c-.7-.52-1.05-1.69-1-3.5s.13-4.3.38-7.34a3.85,3.85,0,0,1,2.16-2.57,8.73,8.73,0,0,1,3.87-.85,4.53,4.53,0,0,0,3.51-1.19,9.46,9.46,0,0,0,1.85-3.39l22.89-71.7a9,9,0,0,0,.49-2.41,1.85,1.85,0,0,0-1.28-1.93,6.19,6.19,0,0,0-2.8-.33,5.3,5.3,0,0,1-2.8-.48,2.27,2.27,0,0,1-1.28-2.23,4.41,4.41,0,0,1,.13-.73q.87-8.16,2.17-10.2Zm.76,17.24Q935.3,184,928.61,207.44l25.81.06q-2.92-10.45-6.1-20.91t-4.89-15.71Z"/><path d="M809,253.45a39.53,39.53,0,0,0,.54-7.19,2.82,2.82,0,0,0-2.07-2.58,12.26,12.26,0,0,0-4.87-.8,5.14,5.14,0,0,1-2.22-.36,2.33,2.33,0,0,1-1.22-1.19,6.34,6.34,0,0,1-.45-1.42,12,12,0,0,1-.12-1.72L798,204.54l-.22-36a6.35,6.35,0,0,1,.72-3.37c.48-.8,1.53-1.21,3.12-1.22,4.59,0,6.88-1.32,6.86-3.9a31.92,31.92,0,0,0-.84-7.16q-.82-3.51-2.49-4.62l-3.41,0-3.67,0a.48.48,0,0,0-.16-.08h-.74l-3.5,0-3.43.06h-2.11v0l-3.74.06-4.34.07-3.41.05c-1.09.76-1.89,2.32-2.38,4.68a31.93,31.93,0,0,0-.68,7.17c0,2.58,2.35,3.82,6.94,3.75q2.4,0,3.15,1.14a6.45,6.45,0,0,1,.8,3.36l1.11,69.88a6.42,6.42,0,0,1-.69,3.37c-.48.81-1.52,1.22-3.11,1.25a12.27,12.27,0,0,0-4.84.94,2.82,2.82,0,0,0-2,2.65,32.07,32.07,0,0,0,.91,7.17c.57,2.31,1.41,3.85,2.53,4.6,5.49-.62,10.17-1,14.07-1q6.19-.1,14.57.57Q808.39,256.94,809,253.45Z"/><path d="M745.8,252.52a38.62,38.62,0,0,0,.63-7.19,2.83,2.83,0,0,0-2-2.61,12.46,12.46,0,0,0-4.86-.86,5.09,5.09,0,0,1-2.21-.39,2.31,2.31,0,0,1-1.2-1.2,6.32,6.32,0,0,1-.44-1.43,12.57,12.57,0,0,1-.09-1.72l-.11-33.66.24-36a14.86,14.86,0,0,1,.86-5c.5-.79,1.89-3.29,3.48-3.49h0c6.31,0,14-.72,14-.72s2.68,12.24,3.2,18.3c.3,3.55,6.41,2.66,6.41,2.66,5.55-.76,3.68-8.87,3.68-8.87-2-17.74-5.22-23.76-5.22-23.76-10.67,3.09-69.62.64-69.62.64-1.51,8.72-4.95,24.26-4.95,24.26-2.64,10.73,5.58,10.3,5.58,10.3a4.44,4.44,0,0,0,5.36-3.88l3.78-18.14,14.31-.09h2.16c1.59,0,2.54,1.59,3,2.38s.57,4,.58,5.42l.21,69.89a6.46,6.46,0,0,1-.73,3.37c-.49.79-1.53,1.19-3.13,1.2a12.21,12.21,0,0,0-4.85.89,2.79,2.79,0,0,0-2,2.62,32.19,32.19,0,0,0,.82,7.18q.81,3.48,2.47,4.63,8.24-.83,14.07-.84,6.21,0,14.57.76Q745.17,256,745.8,252.52Z"/><path d="M684.89,113.19C670,110.94,666.17,96.69,663.3,82c-.07,1.31-.13,2.62-.2,3.93-.61,12.18-1,37.59-1.09,50.73L663.07,206a43.76,43.76,0,0,1-10.35,26.46,32.3,32.3,0,0,1-6.54,5.6l-.87.57h-1c-8,0-12.15-6.64-12.17-14.64l-2.7-176.74,6.06,0A344.37,344.37,0,0,1,624,7.44a341.74,341.74,0,0,1-10.23,40.15l6.07-.17,2.71,176.74c.23,8-3.71,14.71-11.72,15l-1,0-.89-.55a32.39,32.39,0,0,1-6.71-5.4A43.87,43.87,0,0,1,591,207.14L590,137.71c-.45-13.12-1.66-38.51-2.65-50.67-.1-1.31-.21-2.61-.32-3.92-2.41,14.82-5.82,29.18-20.62,31.89a12.59,12.59,0,0,1,11.31,12.31c0,.55.69,3.72.72,4.89l1.15,74.8a50.07,50.07,0,0,0,3.81,18.08c2.39,5.77,5.79,14,10.12,18.64a45.27,45.27,0,0,0,16.62,10.81,56.43,56.43,0,0,0,17.75,2.71,53.86,53.86,0,0,0,17.5-3.25,45.24,45.24,0,0,0,16.28-11.32c4.18-4.73,7.42-13.09,9.63-18.94A50.69,50.69,0,0,0,675,205.55l-1.15-74.81c0-1.16.08-4.35.07-4.89A12.6,12.6,0,0,1,684.89,113.19Z"/></svg>